<svg id="Ebene_1" data-name="Ebene 1" xmlns="http://www.w3.org/2000/svg" viewBox="0 0 194 28">
  <defs>
    <style>
      .cls-1 {
        fill: #fff;
      }
    </style>
  </defs>
  <title>Zeichenfläche 37</title>
  <g>
    <g>
      <path class="cls-1" d="M35.56,2.7H39l-9.8,24.35h-.76L20.53,7.34l-8,19.72h-.75L2,2.7H5.5l6.68,16.71L18.9,2.7h3.28l6.76,16.71Z"/>
      <path class="cls-1" d="M43.23,26.95V2.7h6.07a8.78,8.78,0,0,1,5.84,1.82,6.12,6.12,0,0,1,2.16,4.93,6.31,6.31,0,0,1-1.06,3.66,6.32,6.32,0,0,1-3,2.31,10.73,10.73,0,0,1,2.27,2.08,41.66,41.66,0,0,1,3.12,4.6q1.27,2.07,2,3.11l1.28,1.74H57.8l-1.06-1.6-.21-.3-.68-1-1.07-1.77-1.16-1.89a19,19,0,0,0-2-2.38A7.5,7.5,0,0,0,50,16.79a5.45,5.45,0,0,0-2.42-.39h-.9V26.95Zm4.51-21.3h-1v7.65H48a9.8,9.8,0,0,0,3.62-.45,3.42,3.42,0,0,0,1.53-1.36,4,4,0,0,0,.55-2.07,3.71,3.71,0,0,0-.61-2.07A3.25,3.25,0,0,0,51.4,6,12.36,12.36,0,0,0,47.75,5.65Z"/>
      <path class="cls-1" d="M73.73,2.56h2.44L87,26.95H83.49l-3.23-7.19H69.91l-3,7.19H63.31Zm5.1,14.11L74.92,7.89l-3.63,8.78Z"/>
      <path class="cls-1" d="M90.92,26.95V2.67h7.69a7.92,7.92,0,0,1,5.54,1.87,6.46,6.46,0,0,1,2.07,5,6.72,6.72,0,0,1-1.06,3.75,6.06,6.06,0,0,1-2.9,2.37,14.74,14.74,0,0,1-5.28.74H94.41V26.95ZM98,5.76H94.41v7.58h3.8a4.82,4.82,0,0,0,3.26-1,3.58,3.58,0,0,0,1.15-2.85Q102.62,5.76,98,5.76Z"/>
      <path class="cls-1" d="M108.59,2.67h20.25V5.76h-8.45V26.95H116.9V5.76h-8.31Z"/>
      <path class="cls-1" d="M133.51,2.7h13.75V5.79H137v7.39h9.93v3.11H137v7.53h10.6v3.09H133.51Z"/>
      <path class="cls-1" d="M173.57,21.32v3.82a18.12,18.12,0,0,1-8.82,2.08,13.59,13.59,0,0,1-6.89-1.63,12,12,0,0,1-4.48-4.5,12.22,12.22,0,0,1-1.65-6.2A11.84,11.84,0,0,1,155.51,6a13,13,0,0,1,9.31-3.61,21.84,21.84,0,0,1,8.49,2V8.12A16.7,16.7,0,0,0,165,5.69a9.62,9.62,0,0,0-6.92,2.63,8.74,8.74,0,0,0-2.75,6.59A8.65,8.65,0,0,0,158,21.46,9.66,9.66,0,0,0,165,24,15.71,15.71,0,0,0,173.57,21.32Z"/>
    </g>
    <path class="cls-1" d="M184.36.77a7.48,7.48,0,0,1,3.82,1A7.58,7.58,0,0,1,191,4.6a7.59,7.59,0,0,1,0,7.62A7.64,7.64,0,0,1,176.71,8.4,7.65,7.65,0,0,1,184.36.77Zm0,1.27a6.13,6.13,0,0,0-4.5,1.87A6.13,6.13,0,0,0,178,8.4a6.12,6.12,0,0,0,1.86,4.5,6.37,6.37,0,0,0,9,0,6.12,6.12,0,0,0,1.86-4.49,6.13,6.13,0,0,0-1.87-4.5A6.12,6.12,0,0,0,184.36,2ZM182.63,12.5H181.3V4.3h2.84a6.64,6.64,0,0,1,2.13.24,2.07,2.07,0,0,1,1,.79,2.1,2.1,0,0,1,.37,1.18A2.14,2.14,0,0,1,187,8.1a2.61,2.61,0,0,1-1.69.73,2.53,2.53,0,0,1,.88.63,10,10,0,0,1,1,1.44l1,1.6h-1.62l-.72-1.28a7.89,7.89,0,0,0-1.23-1.8A1.75,1.75,0,0,0,183.42,9h-.79Zm0-7.09V7.88h1.62a2.92,2.92,0,0,0,1.51-.3,1,1,0,0,0,.47-.95,1,1,0,0,0-.46-1,3.43,3.43,0,0,0-1.62-.27Z"/>
  </g>
</svg>
